<svg width="40" height="40" viewBox="0 0 40 40" fill="none" xmlns="http://www.w3.org/2000/svg">
<path d="M20 0C31.04 0 40 8.96 40 20C40 31.04 31.04 40 20 40C8.96 40 0 31.04 0 20C0 8.96 8.96 0 20 0ZM20 4C11.16 4 4 11.16 4 20C4 28.84 11.16 36 20 36C28.84 36 36 28.84 36 20C36 11.16 28.84 4 20 4ZM20 10C23.64 10 26.826 11.946 28.576 14.856L25.148 16.914C24.6085 16.0145 23.8427 15.2721 22.9268 14.7609C22.0109 14.2497 20.977 13.9875 19.9282 14.0005C18.8794 14.0134 17.8523 14.3011 16.9494 14.8348C16.0465 15.3686 15.2992 16.1297 14.7821 17.0422C14.2651 17.9548 13.9963 18.987 14.0026 20.0359C14.0088 21.0848 14.29 22.1137 14.8179 23.02C15.3458 23.9263 16.1021 24.6784 17.0114 25.2013C17.9207 25.7242 18.9511 25.9996 20 26C21.0363 26.0007 22.055 25.7328 22.9569 25.2224C23.8588 24.7121 24.613 23.9767 25.146 23.088L28.576 25.144C27.452 27.0212 25.7433 28.4779 23.7119 29.2907C21.6804 30.1034 19.4384 30.2274 17.3298 29.6435C15.2212 29.0595 13.3623 27.8 12.0383 26.0581C10.7143 24.3162 9.99824 22.188 10 20C10 14.48 14.48 10 20 10Z" fill="white"/>
</svg>
