<svg width="67" height="60" viewBox="0 0 67 60" fill="none" xmlns="http://www.w3.org/2000/svg">
<path d="M3.33333 0H63.3333C64.2174 0 65.0652 0.351189 65.6904 0.976311C66.3155 1.60143 66.6667 2.44928 66.6667 3.33333V56.6667C66.6667 57.5507 66.3155 58.3986 65.6904 59.0237C65.0652 59.6488 64.2174 60 63.3333 60H3.33333C2.44928 60 1.60143 59.6488 0.976311 59.0237C0.351189 58.3986 0 57.5507 0 56.6667V3.33333C0 2.44928 0.351189 1.60143 0.976311 0.976311C1.60143 0.351189 2.44928 0 3.33333 0ZM33.5333 28.9433L12.16 10.7933L7.84333 15.8733L33.5767 37.7233L58.8467 15.8567L54.4867 10.8133L33.5367 28.9433H33.5333Z" fill="white"/>
</svg>
