<svg width="57" height="100" viewBox="0 0 57 100" fill="none" xmlns="http://www.w3.org/2000/svg">
<path d="M49.3513 0H7.27716C3.25049 0 0 3.26507 0 7.28445V92.7228C0 96.7386 3.25049 100 7.27716 100H49.3513C53.3707 100 56.6285 96.7386 56.6285 92.7228V7.28445C56.6285 3.26507 53.3707 0 49.3513 0ZM17.9324 4.42388H38.7034C39.2282 4.42388 39.6545 5.20735 39.6545 6.17666C39.6545 7.14598 39.2282 7.9331 38.7034 7.9331H17.9324C17.404 7.9331 16.9849 7.14598 16.9849 6.17666C16.9849 5.20735 17.404 4.42388 17.9324 4.42388ZM28.3179 92.8103C25.7561 92.8103 23.6717 90.7259 23.6717 88.1605C23.6717 85.5951 25.7561 83.518 28.3179 83.518C30.8724 83.518 32.9568 85.5951 32.9568 88.1605C32.9568 90.7259 30.8724 92.8103 28.3179 92.8103ZM51.177 76.8894H5.45514V12.2914H51.177V76.8894Z" fill="white"/>
</svg>
