<svg width="65" height="58" viewBox="0 0 65 58" fill="none" xmlns="http://www.w3.org/2000/svg">
<path d="M2.92341 22.9194H11.6936V58.0003H2.92341C2.14807 58.0003 1.40449 57.6923 0.856247 57.1441C0.308001 56.5958 0 55.8523 0 55.0769V25.8428C0 25.0675 0.308001 24.3239 0.856247 23.7757C1.40449 23.2274 2.14807 22.9194 2.92341 22.9194ZM18.397 19.1394L37.1068 0.42961C37.3555 0.180226 37.6859 0.0290063 38.0371 0.003762C38.3884 -0.0214823 38.737 0.0809462 39.0188 0.29221L41.5124 2.16319C42.205 2.68311 42.7281 3.39644 43.0158 4.21325C43.3035 5.03006 43.3429 5.91377 43.1291 6.75295L39.7584 19.996H58.4682C60.0189 19.996 61.506 20.612 62.6025 21.7085C63.699 22.805 64.315 24.2921 64.315 25.8428V31.9937C64.3158 32.7577 64.1668 33.5145 63.8765 34.2213L54.8286 56.1907C54.6078 56.7264 54.233 57.1843 53.7515 57.5065C53.27 57.8287 52.7037 58.0006 52.1244 58.0003H20.4639C19.6885 58.0003 18.945 57.6923 18.3967 57.1441C17.8485 56.5958 17.5405 55.8523 17.5405 55.0769V21.2063C17.5406 20.431 17.8487 19.6876 18.397 19.1394Z" fill="white"/>
</svg>
