<svg width="40" height="52" viewBox="0 0 40 52" fill="none" xmlns="http://www.w3.org/2000/svg">
<path d="M0.607641 37.3708C5.22495 47.5605 15.1102 51.9959 20.0168 51.9959C23.243 51.9959 28.6216 50.0768 33.2401 45.8669C31.5514 45.9847 29.7465 46.0444 27.8178 46.0444C27.3653 46.0444 26.8905 46.0403 26.3831 46.0323C25.4108 46.7811 24.2065 47.2032 22.9567 47.2032H18.8473C15.7505 47.2032 13.2311 44.6839 13.2311 41.5871C13.2311 38.4902 15.7505 35.9709 18.8473 35.9709H22.9567C24.4413 35.9709 25.8297 36.5495 26.8595 37.5475C27.2017 37.5514 27.539 37.553 27.8699 37.553C33.1748 37.553 36.6708 37.0665 38.9579 36.4796C38.6612 35.7578 38.4995 34.9679 38.4995 34.1433V19.9037C38.4995 18.4224 39.0494 17.0025 40 15.9055C39.4926 11.9564 38.5719 8.94149 37.1977 6.71749C34.366 2.13442 28.9066 0 20.0168 0C12.6421 0 7.5495 1.53089 4.44828 4.68005C2.04429 7.12131 0.651202 10.6047 0 15.8655C0.972008 16.9666 1.53417 18.401 1.53417 19.9037V34.1433C1.53445 35.3282 1.19391 36.4339 0.607641 37.3708Z" fill="white"/>
</svg>
