<svg width="112" height="75" viewBox="0 0 112 75" fill="none" xmlns="http://www.w3.org/2000/svg">
<path d="M111.548 39.056C98.9576 61.3538 78.1905 74.6681 56 74.6681C33.8095 74.6681 13.0424 61.3538 0.451509 39.056C-0.150503 37.9873 -0.150503 36.6853 0.451509 35.6166C13.0424 13.3141 33.8095 -0.000144961 56 -0.000144961C78.1905 -0.000144961 98.9576 13.3141 111.548 35.6119C112.151 36.6806 112.151 37.9873 111.548 39.056ZM56 18.6669C45.7051 18.6669 37.3329 27.0391 37.3329 37.334C37.3329 47.6288 45.7051 56.001 56 56.001C66.2949 56.001 74.6671 47.6288 74.6671 37.334C74.6671 27.0391 66.2949 18.6669 56 18.6669Z" fill="white"/>
</svg>
