<svg width="36" height="36" viewBox="0 0 36 36" fill="none" xmlns="http://www.w3.org/2000/svg">
<path d="M0 1.986C0 0.89 0.89 0 1.986 0H34.014C35.11 0 36 0.89 36 1.986V34.014C35.9995 34.5406 35.7901 35.0454 35.4177 35.4177C35.0454 35.7901 34.5406 35.9995 34.014 36H1.986C1.45944 35.9995 0.954603 35.7901 0.582271 35.4177C0.209938 35.0454 0.00052947 34.5406 0 34.014V1.986ZM15.244 10.83C15.1236 10.7497 14.9837 10.7035 14.8392 10.6964C14.6947 10.6893 14.5509 10.7216 14.4233 10.7897C14.2956 10.8579 14.1889 10.9593 14.1143 11.0834C14.0398 11.2074 14.0003 11.3493 14 11.494V24.506C14.0003 24.6507 14.0398 24.7926 14.1143 24.9166C14.1889 25.0407 14.2956 25.1421 14.4233 25.2103C14.5509 25.2784 14.6947 25.3107 14.8392 25.3036C14.9837 25.2965 15.1236 25.2503 15.244 25.17L25.002 18.666C25.1117 18.593 25.2017 18.494 25.264 18.3778C25.3262 18.2616 25.3588 18.1318 25.3588 18C25.3588 17.8682 25.3262 17.7384 25.264 17.6222C25.2017 17.506 25.1117 17.407 25.002 17.334L15.242 10.83H15.244Z" fill="#5956E9"/>
</svg>
