<svg width="100" height="59" viewBox="0 0 100 59" fill="none" xmlns="http://www.w3.org/2000/svg">
<path d="M97.0703 0H85.1562C83.5369 0 82.2266 1.31035 82.2266 2.92969V5.85938H58.2494C57.0359 2.45664 53.8145 0 50 0C46.1855 0 42.9641 2.45664 41.7506 5.85938H17.7734V2.92969C17.7734 1.31035 16.4631 0 14.8438 0H2.92969C1.31035 0 0 1.31035 0 2.92969V14.6484C0 16.2678 1.31035 17.5781 2.92969 17.5781H14.8438C16.4631 17.5781 17.7734 16.2678 17.7734 14.6484V11.6797H29.8055C19.6381 18.0314 12.934 29.1875 12.1326 41.6826C8.61738 42.8332 6.05469 46.1055 6.05469 50C6.05469 54.8465 9.99727 58.7891 14.8438 58.7891C19.6902 58.7891 23.6328 54.8465 23.6328 50C23.6328 46.2617 21.2771 43.0834 17.9805 41.815C18.9801 27.8844 28.7004 16.143 42.2213 12.793C43.6836 15.6205 46.6029 17.5781 50 17.5781C53.3971 17.5781 56.3164 15.6205 57.7787 12.793C71.2996 16.1428 81.0199 27.8842 82.0195 41.8148C78.7229 43.0834 76.3672 46.2617 76.3672 50C76.3672 54.8465 80.3098 58.7891 85.1562 58.7891C90.0027 58.7891 93.9453 54.8465 93.9453 50C93.9453 46.1055 91.3826 42.8332 87.8674 41.6826C87.066 29.1875 80.3619 18.0705 70.1945 11.7188H82.2266V14.6484C82.2266 16.2678 83.5369 17.5781 85.1562 17.5781H97.0703C98.6897 17.5781 100 16.2678 100 14.6484V2.92969C100 1.31035 98.6897 0 97.0703 0Z" fill="white"/>
</svg>
