<svg width="28" height="27" viewBox="0 0 28 27" fill="none" xmlns="http://www.w3.org/2000/svg">
<path d="M27 20.13V25.434C27.0002 25.8138 26.8563 26.1795 26.5974 26.4573C26.3385 26.7351 25.9838 26.9044 25.605 26.931C24.9495 26.976 24.414 27 24 27C10.7445 27 0 16.2555 0 3C0 2.586 0.0225 2.0505 0.069 1.395C0.0955836 1.01617 0.264872 0.661516 0.542705 0.402613C0.820539 0.14371 1.18623 -0.00017165 1.566 3.84869e-07H6.87C7.05606 -0.000188002 7.23554 0.0687886 7.37359 0.193531C7.51164 0.318273 7.59839 0.489874 7.617 0.675C7.6515 1.02 7.683 1.2945 7.713 1.503C8.0111 3.58338 8.622 5.60675 9.525 7.5045C9.6675 7.8045 9.5745 8.163 9.3045 8.355L6.0675 10.668C8.04668 15.2797 11.7218 18.9548 16.3335 20.934L18.6435 17.703C18.7379 17.571 18.8757 17.4763 19.0327 17.4355C19.1898 17.3946 19.3562 17.4102 19.503 17.4795C21.4005 18.3808 23.4234 18.9902 25.503 19.287C25.7115 19.317 25.986 19.35 26.328 19.383C26.5129 19.402 26.6841 19.4889 26.8085 19.6269C26.933 19.7649 27.0017 19.9442 27.0015 20.13H27Z" fill="white"/>
</svg>
