<svg width="39" height="43" viewBox="0 0 39 43" fill="none" xmlns="http://www.w3.org/2000/svg">
<path d="M0 23.3535H12.0235V19.3457H0V1.00179C2.98093e-05 0.827677 0.0454295 0.656579 0.131725 0.505357C0.21802 0.354136 0.342231 0.228012 0.492116 0.139416C0.642001 0.0508198 0.812385 0.00281034 0.986476 0.000119677C1.16057 -0.00257099 1.33235 0.0401499 1.4849 0.124072L38.4813 20.4719C38.6384 20.5584 38.7694 20.6854 38.8606 20.8398C38.9519 20.9942 39 21.1703 39 21.3496C39 21.5289 38.9519 21.705 38.8606 21.8594C38.7694 22.0137 38.6384 22.1408 38.4813 22.2273L1.4849 42.5751C1.33235 42.659 1.16057 42.7018 0.986476 42.6991C0.812385 42.6964 0.642001 42.6484 0.492116 42.5598C0.342231 42.4712 0.21802 42.345 0.131725 42.1938C0.0454295 42.0426 2.98093e-05 41.8715 0 41.6974V23.3535Z" fill="white"/>
</svg>
