<svg width="31" height="25" viewBox="0 0 31 25" fill="none" xmlns="http://www.w3.org/2000/svg">
<path d="M30.7465 2.96777C29.5949 3.47716 28.3736 3.81171 27.1232 3.96033C28.4412 3.17207 29.4277 1.9315 29.8987 0.469803C28.6618 1.20592 27.3057 1.72181 25.8923 2.00087C24.9429 0.985053 23.6845 0.311361 22.3127 0.0845249C20.941 -0.142311 19.5327 0.0904173 18.3068 0.74653C17.0809 1.40264 16.1062 2.44538 15.5341 3.71263C14.9619 4.97988 14.8245 6.40065 15.1432 7.75405C12.6348 7.62832 10.1809 6.97648 7.94085 5.84084C5.70075 4.7052 3.72452 3.11115 2.14047 1.16218C1.57977 2.12524 1.28512 3.22003 1.2867 4.33442C1.2867 6.52165 2.39992 8.45396 4.09239 9.58529C3.0908 9.55376 2.11126 9.28327 1.23541 8.79638V8.87481C1.23571 10.3315 1.73978 11.7433 2.66216 12.8708C3.58454 13.9982 4.86845 14.772 6.29622 15.0609C5.36644 15.3129 4.39152 15.35 3.44527 15.1695C3.84782 16.4234 4.63242 17.52 5.68921 18.3057C6.746 19.0915 8.02206 19.5271 9.33873 19.5515C8.03014 20.5793 6.5318 21.339 4.92939 21.7873C3.32698 22.2356 1.65193 22.3636 0 22.1641C2.88368 24.0187 6.24055 25.0032 9.66908 25C21.2735 25 27.6195 15.3867 27.6195 7.04961C27.6195 6.77809 27.6119 6.50355 27.5999 6.23505C28.8351 5.34231 29.9011 4.2364 30.748 2.96928L30.7465 2.96777Z" fill="white"/>
</svg>
